<svg width="100" height="100" viewBox="0 0 40 40" fill="none" xmlns="http://www.w3.org/2000/svg"><path d="M0 0h40v40H0z"/><path fill="rgb(0 167 167)" d="M9.69 8.053a3.97 3.97 0 0 0-.17-.185L8.072 6.337l-.07-.074c-.104-.112-.105-.113 0-.225l1.74-1.837.04-.043c.033-.035.066-.042.102-.006.018.019.037.038.054.059l1.725 1.822a.911.911 0 0 1 .082.095.065.065 0 0 1 .005.025.065.065 0 0 1-.018.044c-.038.04-.073.08-.111.118l-1.462 1.547c-.046.048-.09.097-.133.144.009.056.048.044.076.044h2.632a.082.082 0 0 0 .087-.044.091.091 0 0 0 .01-.035c.031-.126.06-.253.094-.378a9.65 9.65 0 0 1 2.245-4.067 8.988 8.988 0 0 1 3.822-2.44A8.655 8.655 0 0 1 22.306.71a8.565 8.565 0 0 1 3.398 1.007 8.989 8.989 0 0 1 2.758 2.318 9.482 9.482 0 0 1 1.942 4.087 10.035 10.035 0 0 1 .22 2.252v1.817a.074.074 0 0 0 .019.056.063.063 0 0 0 .054.02l.407.023a8.884 8.884 0 0 1 5.37 2.17c1.682 1.41 2.85 3.387 3.305 5.597a9.98 9.98 0 0 1 .193 2.832 10.038 10.038 0 0 1-2.046 5.478 9.295 9.295 0 0 1-4.43 3.235 8.58 8.58 0 0 1-2.133.448c-.247.02-.492.032-.74.032h-2.632c-.091 0-.104-.014-.108-.103V16.455c0-.132.006-.138.133-.138h2.477c.026 0 .052.002.078.006a.052.052 0 0 1 .035.017c.009.01.014.024.014.038v12.634c0 .178 0 .178.175.173a6.406 6.406 0 0 0 2.914-.815 6.8 6.8 0 0 0 2.192-1.972 7.214 7.214 0 0 0 1.198-2.758 7.039 7.039 0 0 0 .145-1.784 7.145 7.145 0 0 0-1.53-4.134 6.528 6.528 0 0 0-3.693-2.381 5.705 5.705 0 0 0-1.334-.157h-6.455c-.272 0-.244.026-.244-.25v-2.477c0-.178 0-.182.17-.182h3.644a.068.068 0 0 0 .054-.023.072.072 0 0 0 .014-.026.077.077 0 0 0 .005-.031v-1.898c0-.248-.01-.497-.035-.742a6.605 6.605 0 0 0-.535-2.08 6.561 6.561 0 0 0-1.528-2.201 6.177 6.177 0 0 0-2.247-1.36 5.653 5.653 0 0 0-2.385-.308 6 6 0 0 0-3.447 1.433 6.583 6.583 0 0 0-1.962 2.803c-.017.044-.035.089-.048.135-.012.046.001.078.053.08.051.004.118 0 .174 0h4.037c.253 0 .238-.035.238.26v2.415c0 .239.013.224-.21.224H9.12a6.168 6.168 0 0 0-2.217.397 6.328 6.328 0 0 0-2.611 1.896 6.791 6.791 0 0 0-1.532 4.22c0 .444-.007.881 0 1.322.019.98.257 1.941.695 2.807.39.81.935 1.526 1.602 2.104a6.145 6.145 0 0 0 2.269 1.25c.033.012.063.023.093.03.057.012.073.051.073.105v2.679c0 .178.018.202-.18.16a8.761 8.761 0 0 1-4.679-2.635 9.559 9.559 0 0 1-2.449-4.82A9.9 9.9 0 0 1 0 18.567v-1.011a9.82 9.82 0 0 1 .723-3.733A9.418 9.418 0 0 1 2.795 10.7 8.66 8.66 0 0 1 7.3 8.226a8.206 8.206 0 0 1 1.684-.177l.704.003Z" class="fill-current"/><path fill="rgb(0 167 167)" d="M15.907 27.964h-3.294c-.24 0-.222.023-.222-.234v-2.435c0-.254-.014-.228.227-.228h6.355c.242.006.48-.065.684-.204.154-.098.284-.235.377-.398a1.2 1.2 0 0 0 .154-.538c.012-.2.007-.399 0-.598 0-.067-.017-.083-.08-.089-.064-.005-.105 0-.159 0h-2.124a5.569 5.569 0 0 1-1.372-.153 5.238 5.238 0 0 1-2.484-1.465 5.654 5.654 0 0 1-1.406-2.605 5.544 5.544 0 0 1-.14-1.76 5.702 5.702 0 0 1 .768-2.516 5.364 5.364 0 0 1 1.795-1.85 4.806 4.806 0 0 1 2.028-.74 5.072 5.072 0 0 1 3.613.92 5.553 5.553 0 0 1 2.14 3.199c.113.453.17.919.17 1.387v6.174a4.299 4.299 0 0 1-.68 2.316 3.986 3.986 0 0 1-1.795 1.52c-.464.2-.96.3-1.462.299h-3.1l.007-.002Zm2.866-7.633h1.364a.063.063 0 0 0 .044-.02.062.062 0 0 0 .012-.022.065.065 0 0 0 .005-.025v-2.537c0-.165-.013-.329-.038-.492a2.74 2.74 0 0 0-.365-1 2.599 2.599 0 0 0-.711-.766 2.453 2.453 0 0 0-.94-.408 2.402 2.402 0 0 0-1.018.016 2.51 2.51 0 0 0-1.41.922 2.74 2.74 0 0 0-.56 1.643c-.009.348.05.694.171 1.018.122.323.305.618.538.865.225.253.497.456.799.595.302.139.627.212.957.214.39.001.769-.002 1.15-.002h.002Z" class="fill-current"/><path fill="rgb(0 167 167)" d="M26.776 20.445v3.323a8.426 8.426 0 0 1-.556 3.038 8.17 8.17 0 0 1-2.107 3.109 7.636 7.636 0 0 1-3.22 1.76 7.601 7.601 0 0 1-1.853.234h-1.658c-.072 0-.085-.019-.089-.103v-2.579c0-.228-.018-.225.212-.225h1.618a4.614 4.614 0 0 0 2.904-1.035 5.216 5.216 0 0 0 1.935-3.322 5.82 5.82 0 0 0 .075-.987v-7.244c0-.078.015-.088.095-.094h2.554c.07.006.085.021.09.102v4.023Zm-15.455-.314v7.576c0 .287.035.257-.232.258H8.67c-.073 0-.084-.015-.084-.099V12.55c0-.308-.032-.267.264-.267h2.203c.314 0 .27-.042.272.28v3.281l-.005 4.287Zm10.311 19.221a.27.27 0 0 1-.013-.14V35.6a.204.204 0 0 1 .021-.147.188.188 0 0 1 .114-.087c.161-.066.316-.159.475-.237.048-.026.076-.008.078.044v1.9c0 .055.025.089.085.089h5.807c.26 0 .242.02.242-.255v-.969a.095.095 0 0 1 .044-.089c.191-.1.385-.2.577-.296a.046.046 0 0 1 .023-.002.051.051 0 0 1 .038.03.054.054 0 0 1 .005.024v2.085c0 .219.005.208-.208.208h-6.492c-.12 0-.129.015-.13.147v.866a.185.185 0 0 1-.027.108.17.17 0 0 1-.082.07c-.179.088-.355.177-.532.258.005.013-.012.005-.025.005Zm-4.776.001v-.945c0-.108-.014-.123-.112-.123h-.663a1.47 1.47 0 0 1-1.225-.564 1.589 1.589 0 0 1-.324-.785 1.6 1.6 0 0 1 .094-.88 1.51 1.51 0 0 1 .543-.676 1.366 1.366 0 0 1 1.014-.274c.281.029.549.142.77.325.223.183.39.43.484.71.06.16.088.331.085.504v2.352a.092.092 0 0 1-.053.083c-.186.093-.373.187-.564.279-.008.003-.022-.004-.05-.006Zm0-2.306v-.35a.914.914 0 0 0-.086-.392.87.87 0 0 0-.244-.31.814.814 0 0 0-.73-.146.818.818 0 0 0-.33.192.875.875 0 0 0-.216.327.803.803 0 0 0-.058.423c.024.22.126.424.285.569a.82.82 0 0 0 .577.216h.663c.13 0 .137-.006.139-.155v-.374Zm-7.593-1.445v1.787a1.3 1.3 0 0 0 .218.756c.101.156.236.284.395.373.158.09.335.136.514.138a1.052 1.052 0 0 0 .816-.33 1.17 1.17 0 0 0 .352-.822c.007-.444 0-.893 0-1.34 0-.248-.03-.203.195-.319.139-.072.282-.138.422-.205a.2.2 0 0 1 .054-.01c.036.029.025.065.025.096 0 .586.005 1.17 0 1.755 0 .388-.116.765-.332 1.08a1.85 1.85 0 0 1-1.202.8 1.774 1.774 0 0 1-1.019-.132 1.91 1.91 0 0 1-1.115-1.747v-1.464a.136.136 0 0 1 .02-.079.126.126 0 0 1 .06-.051l.37-.178.227-.108Zm9.731-.468a.361.361 0 0 1 .015.162v3.555a.701.701 0 0 0 0 .082.164.164 0 0 1-.021.11.149.149 0 0 1-.085.067c-.149.068-.294.147-.44.22-.034.018-.068.045-.11.027a.28.28 0 0 1-.014-.14V35.5c0-.014.004-.027.01-.04a.072.072 0 0 1 .029-.028c.191-.113.39-.212.596-.297 0 0 .014-.005.02-.002Zm-5.3.89v1.65c0 .056 0 .11-.005.164a.067.067 0 0 1-.037.062.058.058 0 0 1-.024.005h-.565a.057.057 0 0 1-.023-.006.06.06 0 0 1-.02-.015.068.068 0 0 1-.016-.048v-3.301a.108.108 0 0 1 .056-.1l.564-.277a.05.05 0 0 1 .024 0 .05.05 0 0 1 .023.009.054.054 0 0 1 .015.019.058.058 0 0 1 .007.024v1.814Zm6.743.132v1.567c0 .178 0 .183-.174.184h-.428c-.064 0-.085-.022-.085-.083v-2.888c0-.225-.018-.2.188-.306.138-.072.28-.145.422-.215.045-.023.077 0 .08.052.003.053 0 .11 0 .165l-.003 1.524Zm10.17-1.75c.02.064.027.132.018.199v3.072c0 .248.012.23-.226.23h-.351c-.072 0-.085-.019-.09-.1v-3.011a.115.115 0 0 1 .017-.068.106.106 0 0 1 .052-.043c.17-.083.338-.172.507-.258a.467.467 0 0 1 .073-.02ZM19.95 33.325c.266 0 .532-.01.797 0 .394.015.77.178 1.06.46a.58.58 0 0 1 .066.076.06.06 0 0 1 0 .075.274.274 0 0 1-.025.028c-.142.11-.285.22-.423.331a.082.082 0 0 1-.12-.005 1 1 0 0 0-.147-.1.925.925 0 0 0-.482-.133c-.501.005-1 0-1.502 0-.207 0-.203 0-.201-.215v-.433c0-.065.02-.089.084-.089h.896l-.002.005Zm-4.669-1.968v-.434c0-.068.024-.1.08-.083a.38.38 0 0 0 .26-.014.177.177 0 0 1 .168.021.134.134 0 0 0 .175 0 .229.229 0 0 1 .094-.026.188.188 0 0 1 .18.037.219.219 0 0 1 .073.177c.006.26 0 .522 0 .784 0 .053-.031.068-.075.07-.098.006-.117-.01-.12-.107v-.64c0-.089-.034-.128-.095-.13a.114.114 0 0 0-.089.036.127.127 0 0 0-.034.094v.64c0 .034 0 .07-.024.095a.189.189 0 0 1-.15-.005c-.028-.017-.024-.047-.024-.073v-.534c0-.056 0-.11-.005-.165a.091.091 0 0 0-.024-.056.083.083 0 0 0-.051-.026.11.11 0 0 0-.076.013.12.12 0 0 0-.05.06.813.813 0 0 0-.011.144v.557c0 .08-.018.097-.085.1-.084 0-.108-.011-.108-.1v-.432l-.009-.003Zm-2.765-.185v.622c0 .072-.03.105-.095.089a.448.448 0 0 0-.224.009.202.202 0 0 1-.207-.03.22.22 0 0 1-.082-.2 8.278 8.278 0 0 1 0-.598c.007-.2.104-.267.285-.243.018 0 .037.012.055.016.04.006.066-.008.066-.05 0-.069 0-.138.005-.207.005-.068.02-.096.094-.096.075 0 .1.02.101.09v.599h.002Zm-.414.183v.267c.002.02.011.039.025.053a.082.082 0 0 0 .051.026c.06.007.13-.032.135-.089.014-.17.014-.341 0-.511a.122.122 0 0 0-.05-.071.112.112 0 0 0-.082-.018.091.091 0 0 0-.06.032.102.102 0 0 0-.024.068c.003.079.005.16.005.243Z" class="fill-current"/><path fill="rgb(0 167 167)" d="M26.792 38.88c-.146.167-.295.316-.44.47a.057.057 0 0 1-.041.023.058.058 0 0 1-.044-.017 31.927 31.927 0 0 1-.44-.463.06.06 0 0 1-.013-.02.061.061 0 0 1 .014-.069c.13-.14.264-.28.397-.42a.069.069 0 0 1 .024-.018.064.064 0 0 1 .028-.007.067.067 0 0 1 .052.026c.153.155.313.313.463.495ZM9.186 29.546v.227c0 .063 0 .122.073.15.036.012.034.052.025.088a.069.069 0 0 1-.02.034.062.062 0 0 1-.034.016.182.182 0 0 1-.17-.03.08.08 0 0 0-.106 0 .28.28 0 0 1-.208.035.169.169 0 0 1-.114-.055.188.188 0 0 1-.05-.123c-.026-.313 0-.386.265-.45a.488.488 0 0 0 .056-.02.127.127 0 0 0 .048-.03.136.136 0 0 0 .038-.109.14.14 0 0 0-.018-.056.101.101 0 0 0-.1-.05.093.093 0 0 0-.084.045.275.275 0 0 0-.02.078c-.019.088-.045.105-.117.088a.062.062 0 0 1-.035-.016.066.066 0 0 1-.019-.034.28.28 0 0 1 .04-.244.255.255 0 0 1 .095-.08.243.243 0 0 1 .118-.024.67.67 0 0 1 .099 0 .21.21 0 0 1 .169.069.233.233 0 0 1 .06.18c.007.102 0 .204 0 .308l.009.003Zm-.202.148c0-.098 0-.12-.029-.126a.152.152 0 0 0-.1.02.166.166 0 0 0-.07.08.422.422 0 0 0-.008.122c0 .027.012.053.03.071a.09.09 0 0 0 .07.029c.025 0 .05-.01.07-.026a.118.118 0 0 0 .038-.07.837.837 0 0 0-.001-.103v.003Zm1.414 6.275c.161.17.307.323.453.48.052.056.053.088.006.14-.135.147-.271.291-.401.43a.152.152 0 0 1-.095-.059c-.123-.13-.247-.26-.37-.392-.059-.065-.06-.098-.006-.158.13-.143.262-.281.413-.441Zm1.086-6.196c0-.033 0-.068.006-.103a.21.21 0 0 1 .039-.114.197.197 0 0 1 .094-.07c.074-.03.148-.051.221-.079.052-.02.07-.062.057-.134a.112.112 0 0 0-.027-.064.101.101 0 0 0-.058-.033.106.106 0 0 0-.075.009.114.114 0 0 0-.053.057c-.006.02-.006.04-.011.061-.016.076-.054.103-.118.081a.063.063 0 0 1-.041-.036.314.314 0 0 1 .046-.273.223.223 0 0 1 .094-.069.475.475 0 0 1 .286 0c.035.01.067.03.091.058a.204.204 0 0 1 .047.102.795.795 0 0 1 .016.162v.472c0 .06.013.107.075.124.029.01.034.038.03.067a.075.075 0 0 1-.018.046.068.068 0 0 1-.042.023.184.184 0 0 1-.169-.028.072.072 0 0 0-.05-.024.072.072 0 0 0-.051.02.276.276 0 0 1-.17.038.186.186 0 0 1-.08-.01.199.199 0 0 1-.12-.115.541.541 0 0 1-.016-.168h-.003Zm.405-.2c-.164.01-.223.07-.21.21a.121.121 0 0 0 .029.073c.018.02.041.032.067.036a.116.116 0 0 0 .08-.026.127.127 0 0 0 .045-.074.507.507 0 0 0-.016-.219h.005Zm-.319 1.798v.453c0 .042-.025.06-.063.063a.165.165 0 0 1-.076-.006.122.122 0 0 0-.126 0 .32.32 0 0 1-.094.026.18.18 0 0 1-.167-.04.207.207 0 0 1-.068-.166c-.008-.266 0-.533 0-.804 0-.043.029-.055.064-.06.103-.008.123.01.124.125v.66a.088.088 0 0 0 .071.085.104.104 0 0 0 .076-.012.11.11 0 0 0 .049-.06.755.755 0 0 0 .01-.143v-.578c0-.053.029-.072.074-.074h.038c.072 0 .085.017.085.1v.435l.004-.004Zm.965-1.848v-.454c0-.047.035-.09.075-.07.094.02.19.016.282-.011.17-.02.247.052.254.23.007.247 0 .494 0 .742 0 .078-.02.089-.095.093-.076.005-.1-.012-.1-.107v-.496c0-.06 0-.122-.007-.184a.095.095 0 0 0-.029-.065.086.086 0 0 0-.063-.024.106.106 0 0 0-.076.02.115.115 0 0 0-.043.069 1.067 1.067 0 0 0-.007.144v.556c0 .034 0 .072-.042.081-.043.009-.092.022-.128-.017a.116.116 0 0 1-.018-.075v-.433h-.003Zm1.075 1.84v.227a.108.108 0 0 0 .099.108c.057.005.101-.038.114-.113 0-.02 0-.04.005-.061.01-.09.048-.115.129-.094a.068.068 0 0 1 .05.055.51.51 0 0 1-.012.223.263.263 0 0 1-.064.113.244.244 0 0 1-.109.065.357.357 0 0 1-.228-.007.228.228 0 0 1-.123-.082.248.248 0 0 1-.051-.143 8.054 8.054 0 0 1 0-.598c0-.055.02-.109.055-.15a.219.219 0 0 1 .136-.077.4.4 0 0 1 .135-.016.254.254 0 0 1 .124.028.284.284 0 0 1 .135.34c-.01.04-.042.05-.076.053-.034.002-.084 0-.095-.048-.01-.032-.006-.068-.014-.1a.101.101 0 0 0-.038-.059.094.094 0 0 0-.066-.018.093.093 0 0 0-.063.026.104.104 0 0 0-.032.063c-.011.089-.013.178-.018.267l.007-.002Zm-5.032.001v-.267a.275.275 0 0 1 .066-.19.249.249 0 0 1 .212-.086c.193-.005.325.074.317.315 0 .089-.043.124-.124.107a.062.062 0 0 1-.053-.052.674.674 0 0 0-.016-.102.09.09 0 0 0-.03-.05.083.083 0 0 0-.055-.019.096.096 0 0 0-.064.016.108.108 0 0 0-.042.055.23.23 0 0 0-.013.06v.433c0 .02.005.04.013.06a.11.11 0 0 0 .037.046.101.101 0 0 0 .055.018c.02.001.04-.004.056-.015a.1.1 0 0 0 .038-.046.52.52 0 0 0 .02-.121c.008-.083.034-.102.112-.09a.07.07 0 0 1 .066.065.524.524 0 0 1 .005.08.307.307 0 0 1-.022.162.289.289 0 0 1-.102.123.327.327 0 0 1-.352 0 .243.243 0 0 1-.12-.203v-.288l-.004-.01Zm2.062-.005c0 .089.005.178 0 .267a.278.278 0 0 1-.046.154.253.253 0 0 1-.122.098.322.322 0 0 1-.347-.05.257.257 0 0 1-.085-.198 7.077 7.077 0 0 1 0-.534.294.294 0 0 1 .084-.204.266.266 0 0 1 .197-.076.261.261 0 0 1 .212.056.287.287 0 0 1 .106.201c.006.095.006.19 0 .285h.001Zm-.41-.01v.267a.105.105 0 0 0 .036.068.099.099 0 0 0 .073.02.103.103 0 0 0 .08-.034.118.118 0 0 0 .029-.086c.005-.149 0-.3 0-.45v-.021a.12.12 0 0 0-.041-.079.11.11 0 0 0-.083-.025.102.102 0 0 0-.068.037.112.112 0 0 0-.025.075c-.007.078-.002.153-.002.23l.001-.002Zm4.72.01c0 .088.004.178 0 .266a.294.294 0 0 1-.083.203.265.265 0 0 1-.196.077.261.261 0 0 1-.212-.055.297.297 0 0 1-.104-.201 2.763 2.763 0 0 1 0-.575.29.29 0 0 1 .094-.195.26.26 0 0 1 .2-.065.262.262 0 0 1 .208.07.3.3 0 0 1 .093.208c.008.088 0 .177 0 .266Zm-.195 0v-.246a.107.107 0 0 0-.03-.073.097.097 0 0 0-.072-.028.094.094 0 0 0-.072.022.105.105 0 0 0-.035.07 2.443 2.443 0 0 0 0 .513.107.107 0 0 0 .039.07.096.096 0 0 0 .072.02c.026 0 .052-.01.071-.03a.107.107 0 0 0 .03-.072c0-.085-.003-.165-.003-.248v.002Zm-3.933-1.745a.255.255 0 0 0 .074-.17c.024-.128.048-.256.074-.383a.115.115 0 0 1 .068-.063.107.107 0 0 1 .09.01c.024.02.017.048.012.075l-.15.743-.023.12c-.023.1-.035.108-.134.108-.098 0-.106-.01-.123-.089a81.876 81.876 0 0 1-.169-.865c-.017-.09 0-.109.09-.102.064 0 .085.017.095.08.033.17.06.345.096.536Zm-1.205-.093v-.452c0-.06.031-.089.088-.078a.12.12 0 0 1 .071.023c.03.03.057.02.085.006.217-.089.322-.012.32.232v.061a.11.11 0 0 1-.02.045.099.099 0 0 1-.128.026.049.049 0 0 1-.023-.032v-.081c0-.044-.017-.084-.063-.09a.1.1 0 0 0-.074.017.108.108 0 0 0-.045.064.5.5 0 0 0-.014.122v.496a.772.772 0 0 1-.006.122.065.065 0 0 1-.035.042c-.097.034-.153-.005-.155-.108v-.414Zm-.11 1.657v-.595c0-.034 0-.072.038-.089a.159.159 0 0 1 .132.01c.01.007.018.018.02.031a.133.133 0 0 1 .006.041v1.23a.072.072 0 0 1-.03.07.181.181 0 0 1-.148-.01.1.1 0 0 1-.02-.075l.002-.613Zm3.57.586v.06a.06.06 0 0 1-.034.062.056.056 0 0 1-.024.004h-.117a.057.057 0 0 1-.043-.02.063.063 0 0 1-.013-.02.063.063 0 0 1-.001-.026v-.021c-.006-.152.009-.168.148-.161.066 0 .084.018.084.082v.04Z" class="fill-current"/></svg>